<svg preserveAspectRatio="xMinYMin meet" viewBox="0 0 177 43" width="177" height="43" xmlns="http://www.w3.org/2000/svg"><g fill="#515763" fill-rule="nonzero"><path d="M58.95 20.68l-1 2.83h-.08c-.17-.64-.47-1.61-.97-2.78l-5.33-13.5h-5.23v21.52h3.46V15.47c0-.83 0-1.78-.03-2.95-.03-.58-.08-1.03-.11-1.36h.08c.17.83.36 1.45.5 1.84l6.41 15.69h2.44l6.36-15.83c.13-.37.27-1.09.41-1.7h.08c-.08 1.58-.14 3-.16 3.87v13.63h3.67V7.18h-5.03l-5.47 13.5zm13.99-7.43h3.6v15.41h-3.6V13.25zm1.82-6.52a2.15 2.15 0 0 0-2.15 2.12c0 .58.22 1.08.63 1.47.42.4.91.59 1.52.59s1.14-.22 1.52-.59c.42-.39.64-.89.64-1.47 0-.59-.22-1.09-.64-1.5a2.01 2.01 0 0 0-1.52-.62zm14.52 6.38a9.96 9.96 0 0 0-2.02-.23c-1.63 0-3.12.37-4.37 1.09a7.25 7.25 0 0 0-2.87 2.98 9.51 9.51 0 0 0-1 4.45c0 1.47.33 2.78.97 3.98a6.65 6.65 0 0 0 2.7 2.75c1.14.64 2.47.98 3.96.98 1.72 0 3.18-.36 4.34-1.03l.03-.03v-3.34l-.14.11a6.16 6.16 0 0 1-3.45 1.25c-1.44 0-2.58-.41-3.38-1.33a5.15 5.15 0 0 1-1.24-3.65c0-1.58.41-2.84 1.27-3.75.86-.92 2-1.4 3.37-1.4 1.17 0 2.35.4 3.43 1.17l.14.12v-3.54l-.03-.03c-.47-.2-1-.41-1.71-.55zm11.86-.11c-.88 0-1.71.27-2.43.86a5.2 5.2 0 0 0-1.39 2.09h-.02v-2.7h-3.6v15.41h3.6V20.8c0-1.34.27-2.45.88-3.26a2.77 2.77 0 0 1 2.32-1.25c.34 0 .67.08 1.08.14.39.1.67.22.86.36l.14.11v-3.62l-.09-.02a2.72 2.72 0 0 0-1.35-.25zm9.79-.09c-2.52 0-4.54.75-5.95 2.23-1.43 1.47-2.13 3.5-2.13 6.06 0 2.4.72 4.35 2.1 5.76 1.39 1.4 3.27 2.12 5.62 2.12 2.46 0 4.42-.75 5.83-2.25 1.44-1.5 2.13-3.51 2.13-5.99 0-2.45-.66-4.4-2.02-5.81-1.3-1.42-3.2-2.12-5.58-2.12zm2.87 11.86c-.66.86-1.71 1.28-3.01 1.28-1.3 0-2.35-.42-3.1-1.34-.74-.86-1.1-2.11-1.1-3.7 0-1.64.38-2.9 1.1-3.78a3.8 3.8 0 0 1 3.07-1.34c1.27 0 2.27.42 2.99 1.28.72.86 1.1 2.11 1.1 3.76-.05 1.67-.36 2.97-1.05 3.84zm12.75-5.12a8.6 8.6 0 0 1-2.18-1.14 1.59 1.59 0 0 1-.42-1.17c0-.42.17-.84.58-1.12.42-.27.89-.41 1.58-.41.6 0 1.24.1 1.85.27.6.17 1.16.42 1.6.76l.14.1v-3.39l-.08-.03a9.93 9.93 0 0 0-3.4-.64c-1.72 0-3.13.42-4.23 1.34a4.12 4.12 0 0 0-1.63 3.4c0 .72.1 1.36.36 1.89.24.53.6 1.03 1.1 1.44.5.4 1.22.84 2.21 1.26.83.36 1.47.64 1.86.86.38.22.63.47.83.67.13.22.22.5.22.86 0 1.03-.78 1.53-2.35 1.53-.61 0-1.25-.11-2-.36a7.67 7.67 0 0 1-2.01-1.03l-.14-.11v3.53l.08.03a10.67 10.67 0 0 0 4.01.86c1.85 0 3.37-.42 4.45-1.33a4.27 4.27 0 0 0 1.69-3.51c0-1.03-.28-1.95-.89-2.64a11.2 11.2 0 0 0-3.23-1.92zm13.6-6.74c-2.51 0-4.53.75-5.94 2.23-1.41 1.47-2.13 3.5-2.13 6.06 0 2.4.72 4.35 2.1 5.76 1.38 1.4 3.26 2.12 5.61 2.12 2.46 0 4.43-.75 5.84-2.25 1.44-1.5 2.13-3.51 2.13-5.99 0-2.45-.67-4.4-2.02-5.81-1.3-1.42-3.2-2.12-5.59-2.12zM143 24.77c-.66.86-1.71 1.28-3.01 1.28a3.73 3.73 0 0 1-3.1-1.34c-.75-.86-1.1-2.11-1.1-3.7 0-1.64.38-2.9 1.1-3.78a3.8 3.8 0 0 1 3.07-1.34 3.7 3.7 0 0 1 2.99 1.28c.71.86 1.1 2.11 1.1 3.76 0 1.67-.36 2.97-1.05 3.84zm23.97-8.55v-2.97h-3.62V8.68l-.11.03-3.43 1.03-.08.03v3.48h-5.42V11.3c0-.9.22-1.59.6-2.03.4-.45.98-.67 1.7-.67.5 0 1.02.11 1.6.36l.14.08V5.9l-.09-.03a6.4 6.4 0 0 0-2.02-.28c-1.07 0-2.01.25-2.87.67a4.81 4.81 0 0 0-1.96 1.98 5.72 5.72 0 0 0-.72 2.86v2.15h-2.52v2.95h2.52v12.46h3.62V16.22h5.42v7.93c0 3.26 1.52 4.9 4.56 4.9.5 0 1.02-.08 1.52-.17.53-.1.91-.25 1.13-.36l.03-.02v-2.98l-.14.1c-.22.15-.41.26-.74.34-.28.09-.53.11-.72.11-.72 0-1.22-.16-1.58-.58-.33-.39-.5-1.03-.5-1.98v-7.29h3.68zM0 0h16.95v17.06H0zM18.72 0h16.95v17.06H18.72zM0 18.84h16.95V35.9H0zM18.72 18.84h16.95V35.9H18.72z"/></g></svg>
