<svg preserveAspectRatio="xMinYMin meet" viewBox="0 0 177 43" width="177" height="43" xmlns="http://www.w3.org/2000/svg"><path d="m35.923 23.496c-.884-.489-1.35-.884-1.35-1.443 0-.721.629-1.163 1.63-1.163 1.163 0 2.186.489 2.186.489l.815-2.49s-.745-.582-2.955-.582c-3.071 0-5.212 1.769-5.212 4.235 0 1.396 1 2.466 2.327 3.234 1.07.605 1.442 1.047 1.442 1.675 0 .675-.535 1.21-1.535 1.21-1.49 0-2.885-.768-2.885-.768l-.861 2.49s1.303.86 3.466.86c3.165 0 5.422-1.558 5.422-4.35.046-1.536-1.117-2.606-2.49-3.397zm12.61-5.236c-1.559 0-2.768.745-3.722 1.862l-.047-.023 1.35-7.073h-3.537l-3.42 17.985h3.513l1.164-6.143c.465-2.326 1.651-3.745 2.768-3.745.791 0 1.094.535 1.094 1.303 0 .488-.047 1.07-.163 1.558l-1.326 7.05h3.513l1.373-7.26a12.22 12.22 0 0 0 .256-2.302c.046-2.025-.978-3.211-2.816-3.211zm10.819 0c-4.234 0-7.05 3.817-7.05 8.074 0 2.722 1.676 4.933 4.84 4.933 4.164 0 6.956-3.723 6.956-8.074.024-2.536-1.442-4.932-4.746-4.932zm-1.722 10.286c-1.21 0-1.698-1.024-1.698-2.304 0-2.024 1.047-5.305 2.955-5.305 1.256 0 1.652 1.07 1.652 2.118 0 2.187-1.047 5.49-2.909 5.49zm15.496-10.286c-2.373 0-3.723 2.095-3.723 2.095h-.046l.209-1.885h-3.118c-.163 1.28-.442 3.211-.72 4.677l-2.445 12.843h3.513l.977-5.212h.07s.722.465 2.071.465c4.141 0 6.84-4.234 6.84-8.515 0-2.35-1.047-4.467-3.63-4.467zm-3.35 10.354c-.908 0-1.443-.512-1.443-.512l.582-3.28c.418-2.187 1.558-3.653 2.768-3.653 1.07 0 1.396 1 1.396 1.931 0 2.257-1.35 5.514-3.304 5.514zm12.004-15.402c-1.116 0-2.023.884-2.023 2.048 0 1.046.651 1.768 1.652 1.768h.046c1.094 0 2.047-.745 2.07-2.048.024-1.047-.674-1.768-1.744-1.768zm-4.932 17.798h3.537l2.396-12.47h-3.56zm14.867-12.493h-2.443l.117-.582c.21-1.21.907-2.28 2.094-2.28.628 0 1.117.186 1.117.186l.698-2.745s-.605-.303-1.908-.303c-1.257 0-2.49.35-3.444 1.164-1.21 1.023-1.768 2.49-2.047 3.978l-.093.582h-1.629l-.512 2.652h1.629l-1.861 9.842h3.513l1.861-9.842h2.42zm8.469.023s-2.21 5.537-3.187 8.562h-.047c-.07-.977-.86-8.562-.86-8.562h-3.7l2.117 11.447c.047.256.024.419-.07.582a6.103 6.103 0 0 1 -1.907 2.117c-.652.488-1.396.791-1.978 1l.977 2.978c.722-.162 2.187-.744 3.444-1.907 1.605-1.513 3.094-3.816 4.606-6.98l4.305-9.237zm-82.781-8.097s-.326.093-.86.256a6.81 6.81 0 0 0 -.42-1.023c-.604-1.164-1.512-1.792-2.582-1.792-.07 0-.14 0-.233.023-.023-.046-.07-.07-.093-.116-.465-.512-1.07-.744-1.791-.721-1.396.046-2.792 1.047-3.909 2.838-.791 1.257-1.396 2.839-1.559 4.072-1.605.488-2.722.837-2.745.86-.815.257-.838.28-.93 1.048-.07.581-2.211 16.96-2.211 16.96l17.59 3.049v-25.477c-.14 0-.21.023-.257.023zm-4.071 1.257c-.931.279-1.955.605-2.955.907.279-1.093.837-2.187 1.489-2.908.256-.256.605-.559 1-.745.396.838.489 1.978.466 2.746zm-1.908-3.676c.325 0 .605.07.837.21-.372.185-.744.488-1.093.837-.884.954-1.56 2.443-1.838 3.862-.838.256-1.675.512-2.443.744.512-2.233 2.396-5.607 4.537-5.653zm-2.7 12.796c.094 1.49 4.026 1.815 4.259 5.328.162 2.769-1.466 4.653-3.816 4.793-2.839.186-4.397-1.49-4.397-1.49l.604-2.558s1.56 1.186 2.816 1.093c.814-.046 1.116-.721 1.093-1.186-.116-1.955-3.327-1.838-3.536-5.05-.186-2.698 1.582-5.42 5.49-5.676 1.513-.093 2.28.279 2.28.279l-.883 3.35s-1-.465-2.187-.372c-1.722.116-1.745 1.21-1.722 1.49zm5.538-9.4c0-.697-.093-1.698-.419-2.535 1.07.209 1.583 1.396 1.815 2.117-.419.116-.884.256-1.396.419zm3.932 24.43 7.306-1.815s-3.141-21.242-3.164-21.381c-.024-.14-.14-.233-.256-.233s-2.164-.047-2.164-.047-1.256-1.21-1.722-1.675z" fill="#455065"/></svg>
