<svg preserveAspectRatio="xMinYMin meet" viewBox="0 0 177 43" width="177" height="43" xmlns="http://www.w3.org/2000/svg"><g fill="#455065" transform="translate(0 11)"><path d="M0 5.055h4.455l2.594 6.637 2.628-6.637h4.337L7.483 20.767H3.118l1.788-4.164zM18.533 4.791c-3.347 0-5.463 3.002-5.463 5.992 0 3.364 2.32 6.03 5.4 6.03 2.297 0 3.163-1.399 3.163-1.399v1.09h3.886V5.055h-3.886v1.041s-.966-1.305-3.1-1.305zm.827 3.68c1.544 0 2.341 1.221 2.341 2.324 0 1.188-.854 2.353-2.341 2.353-1.233 0-2.347-1.008-2.347-2.302 0-1.313.896-2.376 2.347-2.376zM26.857 16.504V0h4.064v6.136s.966-1.343 2.987-1.343c2.473 0 3.922 1.842 3.922 4.475v7.236h-4.034V10.26c0-.89-.425-1.751-1.386-1.751-.979 0-1.489.873-1.489 1.751v6.245zM44.76 4.793c-3.834 0-6.116 2.914-6.116 6.037 0 3.554 2.763 5.984 6.13 5.984 3.263 0 6.118-2.32 6.118-5.924 0-3.944-2.99-6.097-6.133-6.097zm.036 3.711c1.354 0 2.29 1.128 2.29 2.33 0 1.026-.872 2.291-2.29 2.291-1.3 0-2.274-1.042-2.274-2.302 0-1.213.81-2.319 2.274-2.319zM57.663 4.793c-3.833 0-6.116 2.914-6.116 6.037 0 3.554 2.764 5.984 6.13 5.984 3.264 0 6.119-2.32 6.119-5.924 0-3.944-2.99-6.097-6.133-6.097zm.037 3.711c1.354 0 2.29 1.128 2.29 2.33 0 1.026-.873 2.291-2.29 2.291-1.3 0-2.275-1.042-2.275-2.302 0-1.213.811-2.319 2.275-2.319z"/><circle cx="67.003" cy="14.049" r="2.699"/><path d="M70.588 10.359H65.73L70.042 0h4.84z"/></g></svg>
